<svg width="63" height="18" viewBox="0 0 63 18" fill="none" xmlns="http://www.w3.org/2000/svg">
<rect x="1.43372" y="1.6826" width="60.3754" height="14.9536" transform="rotate(-0.29444 1.43372 1.6826)" stroke="white"/>
<path d="M6.06451 13.2682L6.02209 5.01234L8.67405 4.99871L8.71648 13.2546L6.06451 13.2682ZM16.158 4.96025L19.446 4.94336L16.4995 8.35454L19.5484 13.1989L16.4164 13.215L14.6849 10.1999L13.251 11.3833L13.2605 13.2313L10.6085 13.2449L10.5661 4.98899L13.2181 4.97536L13.2362 8.50332L16.158 4.96025ZM26.1364 13.1651L25.7824 12.0029L22.8905 12.0178L22.5485 13.1835L19.8365 13.1975L22.806 4.92609L25.89 4.91024L28.9444 13.1507L26.1364 13.1651ZM23.433 10.1669L25.2209 10.1577L24.3418 7.22223L24.2938 7.22248L23.433 10.1669ZM37.7507 7.38132C37.7533 7.88532 37.6196 8.34201 37.3497 8.7514C37.0798 9.16079 36.6854 9.46283 36.1664 9.6575L38.0201 13.104L35.0441 13.1193L33.5647 10.1149L32.5807 10.1199L32.5962 13.1319L29.9442 13.1455L29.9018 4.88963L34.9537 4.86366C35.5457 4.86062 36.0503 4.97403 36.4675 5.20389C36.8926 5.42571 37.2102 5.73208 37.4202 6.12301C37.6382 6.50589 37.7483 6.92533 37.7507 7.38132ZM35.0513 7.5032C35.0502 7.2872 34.9772 7.10757 34.8325 6.96431C34.6878 6.82106 34.5114 6.74996 34.3034 6.75103L32.5634 6.75997L32.5713 8.28395L34.3112 8.27501C34.5192 8.27394 34.6949 8.20104 34.8381 8.0563C34.9813 7.90356 35.0524 7.71919 35.0513 7.5032ZM43.1455 4.67756C44.5695 4.67025 45.6713 5.02859 46.4511 5.75259C47.2308 6.47659 47.6242 7.53459 47.6314 8.92657C47.6385 10.3185 47.256 11.3805 46.4837 12.1125C45.7115 12.8445 44.6134 13.2141 43.1894 13.2215C41.7654 13.2288 40.6636 12.8744 39.8839 12.1584C39.1122 11.4344 38.7227 10.3724 38.7155 8.97239C38.7083 7.5724 39.0868 6.51045 39.8511 5.78651C40.6234 5.05453 41.7215 4.68488 43.1455 4.67756ZM43.1557 6.65754C42.5877 6.66046 42.1566 6.83467 41.8623 7.18019C41.5681 7.52571 41.4225 7.99046 41.4255 8.57445L41.4294 9.34244C41.4324 9.92644 41.5828 10.3897 41.8806 10.7321C42.1783 11.0746 42.6112 11.2444 43.1792 11.2415C43.7472 11.2386 44.1783 11.0643 44.4725 10.7188C44.7748 10.3733 44.9244 9.90849 44.9214 9.3245L44.9174 8.55651C44.9144 7.97252 44.7601 7.5093 44.4543 7.16687C44.1565 6.8244 43.7236 6.65462 43.1557 6.65754ZM52.5055 4.62946C53.5614 4.62404 54.4305 4.83557 55.1127 5.26407C55.7949 5.68457 56.1462 6.31478 56.1665 7.15468L56.1672 7.29868L53.6832 7.31145L53.683 7.26345C53.6818 7.02345 53.5927 6.8239 53.4159 6.66481C53.2391 6.50572 52.9707 6.4271 52.6107 6.42895C52.2587 6.43076 51.987 6.48415 51.7955 6.58914C51.612 6.69408 51.5207 6.82255 51.5215 6.97455C51.5226 7.19055 51.6514 7.34989 51.908 7.45257C52.1645 7.55525 52.577 7.66114 53.1456 7.77022C53.8103 7.9028 54.355 8.044 54.7798 8.19382C55.2125 8.3356 55.5898 8.57367 55.9115 8.90802C56.2332 9.24237 56.3995 9.69752 56.4105 10.2735C56.4155 11.2495 56.0872 11.9752 55.4257 12.4506C54.7721 12.9259 53.8933 13.1664 52.7894 13.1721C51.5014 13.1787 50.4963 12.9679 49.7741 12.5396C49.0599 12.1113 48.6999 11.3491 48.6943 10.2531L51.2023 10.2402C51.2044 10.6562 51.3138 10.9357 51.5306 11.0786C51.7473 11.2134 52.0836 11.2797 52.5396 11.2774C52.8756 11.2756 53.1514 11.2382 53.367 11.1651C53.5907 11.092 53.7019 10.9434 53.7008 10.7194C53.6997 10.5194 53.575 10.372 53.3265 10.2773C53.086 10.1746 52.6894 10.0686 52.1368 9.95943C51.4641 9.81888 50.9074 9.67374 50.4666 9.52401C50.0258 9.36627 49.6404 9.10825 49.3106 8.74994C48.9807 8.39163 48.8142 7.90448 48.8111 7.28848C48.8064 6.3845 49.151 5.71872 49.8448 5.29115C50.5466 4.85553 51.4335 4.63497 52.5055 4.62946Z" fill="#FEFFFF"/>
</svg>
