<svg width="62" height="17" viewBox="0 0 62 17" fill="none" xmlns="http://www.w3.org/2000/svg">
<rect x="0.502563" y="0.812854" width="60.3754" height="14.9536" transform="rotate(-0.29444 0.502563 0.812854)" stroke="#070707"/>
<path d="M5.13434 12.3984L5.09191 4.14247L7.74388 4.12884L7.7863 12.3847L5.13434 12.3984ZM15.2278 4.09038L18.5158 4.07348L15.5693 7.48467L18.6182 12.3291L15.4863 12.3452L13.7547 9.33002L12.3208 10.5134L12.3303 12.3614L9.67834 12.375L9.63591 4.11912L12.2879 4.10549L12.306 7.63344L15.2278 4.09038ZM25.2062 12.2952L24.8523 11.133L21.9603 11.1479L21.6183 12.3137L18.9063 12.3276L21.8758 4.05622L24.9598 4.04037L28.0142 12.2808L25.2062 12.2952ZM22.5028 9.29706L24.2908 9.28788L23.4117 6.35236L23.3637 6.3526L22.5028 9.29706ZM36.8205 6.51145C36.8231 7.01544 36.6894 7.47214 36.4195 7.88153C36.1496 8.29092 35.7552 8.59295 35.2362 8.78762L37.0899 12.2341L34.114 12.2494L32.6345 9.245L31.6505 9.25005L31.666 12.262L29.014 12.2756L28.9716 4.01975L34.0235 3.99379C34.6155 3.99075 35.1201 4.10416 35.5373 4.33402C35.9624 4.55583 36.28 4.86221 36.49 5.25313C36.708 5.63602 36.8182 6.05546 36.8205 6.51145ZM34.1211 6.63332C34.12 6.41733 34.0471 6.2377 33.9023 6.09444C33.7576 5.95118 33.5812 5.88009 33.3732 5.88116L31.6332 5.8901L31.6411 7.41408L33.3811 7.40514C33.589 7.40407 33.7647 7.33116 33.9079 7.18643C34.0512 7.03369 34.1222 6.84932 34.1211 6.63332ZM42.2153 3.80769C43.6393 3.80037 44.7411 4.15872 45.5209 4.88272C46.3006 5.60672 46.694 6.66471 46.7012 8.05669C46.7084 9.44868 46.3258 10.5107 45.5536 11.2426C44.7813 11.9746 43.6832 12.3443 42.2592 12.3516C40.8352 12.3589 39.7334 12.0046 38.9537 11.2886C38.182 10.5645 37.7925 9.50249 37.7853 8.10251C37.7781 6.70253 38.1567 5.64057 38.921 4.91664C39.6932 4.18466 40.7913 3.81501 42.2153 3.80769ZM42.2255 5.78767C41.6575 5.79058 41.2264 5.9648 40.9322 6.31032C40.6379 6.65583 40.4923 7.12059 40.4953 7.70458L40.4993 8.47257C40.5023 9.05656 40.6526 9.5198 40.9504 9.86227C41.2482 10.2047 41.681 10.3745 42.249 10.3716C42.817 10.3687 43.2481 10.1945 43.5424 9.84895C43.8446 9.50339 43.9942 9.03862 43.9912 8.45463L43.9873 7.68664C43.9843 7.10264 43.8299 6.63943 43.5241 6.297C43.2264 5.95452 42.7935 5.78475 42.2255 5.78767ZM51.5753 3.75959C52.6313 3.75416 53.5004 3.9657 54.1826 4.3942C54.8647 4.8147 55.216 5.4449 55.2363 6.28481L55.237 6.42881L52.7531 6.44157L52.7528 6.39357C52.7516 6.15358 52.6626 5.95403 52.4857 5.79494C52.3089 5.63585 52.0405 5.55722 51.6805 5.55907C51.3285 5.56088 51.0568 5.61428 50.8653 5.71926C50.6819 5.82421 50.5905 5.95268 50.5913 6.10468C50.5924 6.32068 50.7212 6.48002 50.9778 6.5827C51.2343 6.68538 51.6469 6.79126 52.2154 6.90034C52.8801 7.03293 53.4248 7.17413 53.8496 7.32395C54.2824 7.46573 54.6596 7.70379 54.9813 8.03814C55.303 8.37249 55.4694 8.82765 55.4803 9.4036C55.4853 10.3796 55.1571 11.1053 54.4955 11.5807C53.8419 12.0561 52.9632 12.2966 51.8592 12.3022C50.5712 12.3089 49.5661 12.098 48.8439 11.6697C48.1297 11.2414 47.7698 10.4792 47.7641 9.38325L50.2721 9.37036C50.2742 9.78636 50.3837 10.0658 50.6004 10.2087C50.8171 10.3436 51.1534 10.4098 51.6094 10.4075C51.9454 10.4058 52.2212 10.3684 52.4369 10.2952C52.6605 10.2221 52.7717 10.0735 52.7706 9.84953C52.7696 9.64953 52.6448 9.50217 52.3963 9.40745C52.1558 9.30468 51.7592 9.19872 51.2067 9.08956C50.5339 8.94901 49.9772 8.80387 49.5364 8.65413C49.0956 8.4964 48.7103 8.23837 48.3804 7.88006C48.0506 7.52175 47.8841 7.0346 47.8809 6.41861C47.8762 5.51462 48.2208 4.84884 48.9146 4.42127C49.6164 3.98566 50.5033 3.7651 51.5753 3.75959Z" fill="#070707"/>
</svg>
